<svg width="180" height="180" viewBox="0 0 180 180" fill="none" xmlns="http://www.w3.org/2000/svg">
  <!-- Background circle with rounded corners for Apple devices -->
  <rect width="180" height="180" rx="40" fill="#FF6B0A"/>
  
  <!-- Letter "B" scaled for larger size -->
  <path d="M50 45h36.5c10.85 0 19.67 8.82 19.67 19.67 0 6.73-3.37 12.7-8.6 16.27 5.97 3.77 9.93 10.47 9.93 18.06 0 10.85-8.82 19.67-19.67 19.67H50V45zm16.8 11.2v16.8h19.87c1.5 0 2.8-1.3 2.8-2.8s-1.3-2.8-2.8-2.8H66.8zm0 28v16.8h19.87c1.5 0 2.8-1.3 2.8-2.8s-1.3-2.8-2.8-2.8H66.8z" fill="white"/>
  
  <!-- Gradient overlay for premium look -->
  <defs>
    <linearGradient id="appleGradient" x1="0%" y1="0%" x2="100%" y2="100%">
      <stop offset="0%" style="stop-color:#FF8A3A;stop-opacity:0.2" />
      <stop offset="100%" style="stop-color:#E55A00;stop-opacity:0.1" />
    </linearGradient>
  </defs>
  <rect width="180" height="180" rx="40" fill="url(#appleGradient)"/>
</svg>