<svg width="32" height="32" viewBox="0 0 32 32" fill="none" xmlns="http://www.w3.org/2000/svg">
  <!-- Background circle -->
  <circle cx="16" cy="16" r="16" fill="#FF6B0A"/>
  
  <!-- Letter "B" for Beautifully Done -->
  <path d="M9 8h6.5c1.933 0 3.5 1.567 3.5 3.5 0 1.2-.6 2.267-1.533 2.9C18.8 15.067 19.5 16.267 19.5 17.5c0 1.933-1.567 3.5-3.5 3.5H9V8zm3 2v3h3.5c.267 0 .5-.233.5-.5s-.233-.5-.5-.5H12zm0 5v3h3.5c.267 0 .5-.233.5-.5s-.233-.5-.5-.5H12z" fill="white"/>
  
  <!-- Subtle gradient overlay for depth -->
  <defs>
    <linearGradient id="gradient" x1="0%" y1="0%" x2="100%" y2="100%">
      <stop offset="0%" style="stop-color:#FF8A3A;stop-opacity:0.3" />
      <stop offset="100%" style="stop-color:#E55A00;stop-opacity:0.1" />
    </linearGradient>
  </defs>
  <circle cx="16" cy="16" r="16" fill="url(#gradient)"/>
</svg>